<?xml version="1.0" encoding="UTF-8"?>
<svg xmlns="http://www.w3.org/2000/svg" version="1.1" width="300" height="300" viewBox="0 0 300 300"><rect x="0" y="0" width="300" height="300" fill="#ffffff"/><g transform="scale(10.345)"><g transform="translate(0,0)"><path fill-rule="evenodd" d="M11 0L11 1L9 1L9 2L11 2L11 1L13 1L13 2L12 2L12 4L14 4L14 3L16 3L16 7L15 7L15 5L14 5L14 8L13 8L13 9L12 9L12 7L13 7L13 5L11 5L11 6L10 6L10 8L9 8L9 9L8 9L8 8L5 8L5 10L3 10L3 9L2 9L2 8L0 8L0 10L1 10L1 11L0 11L0 12L2 12L2 13L1 13L1 14L2 14L2 15L0 15L0 16L1 16L1 17L0 17L0 21L1 21L1 19L2 19L2 21L5 21L5 20L6 20L6 21L8 21L8 24L9 24L9 26L10 26L10 25L11 25L11 24L12 24L12 23L14 23L14 22L11 22L11 20L10 20L10 19L12 19L12 21L14 21L14 20L15 20L15 24L13 24L13 25L12 25L12 26L13 26L13 27L12 27L12 29L13 29L13 28L14 28L14 29L16 29L16 28L17 28L17 29L18 29L18 28L17 28L17 26L18 26L18 27L21 27L21 29L22 29L22 28L23 28L23 29L24 29L24 27L25 27L25 28L26 28L26 29L27 29L27 27L28 27L28 28L29 28L29 27L28 27L28 26L29 26L29 25L28 25L28 24L29 24L29 23L28 23L28 24L27 24L27 25L26 25L26 23L27 23L27 22L26 22L26 21L29 21L29 20L26 20L26 21L25 21L25 19L24 19L24 20L23 20L23 18L28 18L28 19L29 19L29 17L27 17L27 14L29 14L29 12L28 12L28 13L26 13L26 17L18 17L18 16L17 16L17 12L16 12L16 11L17 11L17 10L16 10L16 9L14 9L14 8L16 8L16 7L17 7L17 6L18 6L18 7L19 7L19 8L20 8L20 7L21 7L21 6L20 6L20 7L19 7L19 6L18 6L18 5L21 5L21 3L20 3L20 4L19 4L19 2L18 2L18 3L16 3L16 2L17 2L17 1L18 1L18 0L17 0L17 1L16 1L16 2L15 2L15 0ZM20 1L20 2L21 2L21 1ZM13 2L13 3L14 3L14 2ZM8 3L8 5L10 5L10 4L9 4L9 3ZM8 6L8 7L9 7L9 6ZM11 6L11 7L12 7L12 6ZM10 8L10 10L9 10L9 11L8 11L8 10L7 10L7 9L6 9L6 10L7 10L7 11L6 11L6 12L7 12L7 11L8 11L8 13L2 13L2 14L5 14L5 16L4 16L4 15L3 15L3 16L4 16L4 17L3 17L3 18L2 18L2 17L1 17L1 18L2 18L2 19L3 19L3 18L4 18L4 17L5 17L5 16L7 16L7 17L6 17L6 18L5 18L5 19L6 19L6 20L7 20L7 19L8 19L8 20L9 20L9 22L10 22L10 20L9 20L9 19L8 19L8 17L9 17L9 18L12 18L12 19L13 19L13 20L14 20L14 19L15 19L15 20L18 20L18 21L19 21L19 22L17 22L17 21L16 21L16 22L17 22L17 25L16 25L16 24L15 24L15 25L14 25L14 26L15 26L15 25L16 25L16 26L17 26L17 25L19 25L19 24L18 24L18 23L19 23L19 22L20 22L20 20L21 20L21 19L20 19L20 20L18 20L18 17L17 17L17 16L16 16L16 15L15 15L15 14L14 14L14 11L13 11L13 10L12 10L12 9L11 9L11 8ZM17 8L17 9L18 9L18 8ZM24 8L24 9L23 9L23 10L21 10L21 11L23 11L23 12L22 12L22 15L21 15L21 13L20 13L20 11L19 11L19 10L20 10L20 9L19 9L19 10L18 10L18 12L19 12L19 14L20 14L20 16L22 16L22 15L24 15L24 16L25 16L25 13L24 13L24 11L25 11L25 9L26 9L26 10L28 10L28 9L26 9L26 8ZM1 9L1 10L2 10L2 9ZM10 10L10 11L9 11L9 13L8 13L8 14L9 14L9 13L10 13L10 11L11 11L11 10ZM23 10L23 11L24 11L24 10ZM4 11L4 12L5 12L5 11ZM12 11L12 12L11 12L11 13L13 13L13 11ZM6 14L6 15L7 15L7 14ZM11 14L11 16L10 16L10 15L8 15L8 16L9 16L9 17L12 17L12 18L13 18L13 17L14 17L14 18L15 18L15 19L17 19L17 17L16 17L16 16L15 16L15 17L14 17L14 16L13 16L13 17L12 17L12 15L13 15L13 14ZM28 15L28 16L29 16L29 15ZM6 18L6 19L7 19L7 18ZM21 21L21 24L24 24L24 21ZM22 22L22 23L23 23L23 22ZM10 23L10 24L11 24L11 23ZM22 25L22 26L21 26L21 27L22 27L22 26L25 26L25 27L27 27L27 26L28 26L28 25L27 25L27 26L25 26L25 25ZM8 27L8 29L9 29L9 27ZM10 28L10 29L11 29L11 28ZM0 0L0 7L7 7L7 0ZM1 1L1 6L6 6L6 1ZM2 2L2 5L5 5L5 2ZM22 0L22 7L29 7L29 0ZM23 1L23 6L28 6L28 1ZM24 2L24 5L27 5L27 2ZM0 22L0 29L7 29L7 22ZM1 23L1 28L6 28L6 23ZM2 24L2 27L5 27L5 24Z" fill="#000000"/></g></g></svg>
