<?xml version="1.0" encoding="UTF-8"?>
<svg xmlns="http://www.w3.org/2000/svg" version="1.1" width="300" height="300" viewBox="0 0 300 300"><rect x="0" y="0" width="300" height="300" fill="#ffffff"/><g transform="scale(10.345)"><g transform="translate(0,0)"><path fill-rule="evenodd" d="M8 0L8 1L9 1L9 2L8 2L8 5L9 5L9 4L11 4L11 5L10 5L10 10L8 10L8 9L9 9L9 8L8 8L8 9L7 9L7 8L6 8L6 9L7 9L7 10L6 10L6 11L5 11L5 10L3 10L3 12L2 12L2 11L0 11L0 14L1 14L1 15L0 15L0 16L1 16L1 15L2 15L2 16L4 16L4 18L3 18L3 19L2 19L2 20L1 20L1 21L2 21L2 20L3 20L3 21L5 21L5 20L6 20L6 21L8 21L8 22L9 22L9 23L11 23L11 24L10 24L10 25L8 25L8 29L12 29L12 28L14 28L14 27L15 27L15 26L16 26L16 25L13 25L13 26L12 26L12 24L16 24L16 23L20 23L20 25L19 25L19 26L20 26L20 29L21 29L21 27L22 27L22 25L23 25L23 28L24 28L24 29L25 29L25 28L26 28L26 25L28 25L28 27L27 27L27 29L28 29L28 27L29 27L29 24L26 24L26 25L25 25L25 23L26 23L26 22L27 22L27 23L28 23L28 22L29 22L29 21L27 21L27 18L28 18L28 15L29 15L29 13L27 13L27 12L26 12L26 11L28 11L28 12L29 12L29 11L28 11L28 10L29 10L29 8L28 8L28 10L26 10L26 11L24 11L24 10L25 10L25 9L27 9L27 8L24 8L24 9L22 9L22 8L21 8L21 6L20 6L20 4L19 4L19 3L20 3L20 2L19 2L19 1L21 1L21 0L19 0L19 1L17 1L17 0L16 0L16 3L15 3L15 2L14 2L14 1L13 1L13 0L12 0L12 1L11 1L11 0L10 0L10 1L9 1L9 0ZM11 2L11 4L12 4L12 3L13 3L13 2ZM17 2L17 3L16 3L16 4L17 4L17 5L15 5L15 7L14 7L14 6L13 6L13 5L14 5L14 4L13 4L13 5L12 5L12 6L11 6L11 8L12 8L12 6L13 6L13 9L14 9L14 11L16 11L16 9L15 9L15 7L16 7L16 8L17 8L17 7L18 7L18 6L17 6L17 5L19 5L19 4L17 4L17 3L19 3L19 2ZM8 6L8 7L9 7L9 6ZM16 6L16 7L17 7L17 6ZM19 6L19 7L20 7L20 6ZM0 8L0 10L2 10L2 9L4 9L4 8ZM20 8L20 9L21 9L21 8ZM11 9L11 10L12 10L12 9ZM17 9L17 10L18 10L18 11L17 11L17 12L16 12L16 13L17 13L17 12L18 12L18 13L20 13L20 14L22 14L22 15L18 15L18 14L15 14L15 12L14 12L14 13L13 13L13 14L12 14L12 16L10 16L10 17L9 17L9 18L7 18L7 17L8 17L8 16L9 16L9 13L6 13L6 12L8 12L8 10L7 10L7 11L6 11L6 12L5 12L5 11L4 11L4 13L5 13L5 14L4 14L4 16L5 16L5 15L6 15L6 16L7 16L7 17L6 17L6 18L5 18L5 19L3 19L3 20L5 20L5 19L6 19L6 20L8 20L8 19L9 19L9 18L11 18L11 19L10 19L10 20L9 20L9 21L10 21L10 22L11 22L11 23L16 23L16 21L17 21L17 18L19 18L19 19L18 19L18 20L19 20L19 19L21 19L21 18L20 18L20 16L22 16L22 19L23 19L23 16L24 16L24 15L25 15L25 17L24 17L24 20L26 20L26 19L25 19L25 18L26 18L26 17L27 17L27 15L25 15L25 14L27 14L27 13L25 13L25 12L22 12L22 10L21 10L21 11L20 11L20 10L19 10L19 9ZM11 11L11 13L10 13L10 14L11 14L11 13L12 13L12 12L13 12L13 11ZM1 12L1 14L2 14L2 12ZM20 12L20 13L21 13L21 12ZM22 13L22 14L23 14L23 15L22 15L22 16L23 16L23 15L24 15L24 14L23 14L23 13ZM6 14L6 15L7 15L7 16L8 16L8 14ZM15 15L15 16L12 16L12 17L13 17L13 18L15 18L15 19L14 19L14 20L15 20L15 19L16 19L16 17L15 17L15 16L16 16L16 15ZM18 16L18 17L19 17L19 16ZM1 17L1 18L0 18L0 19L1 19L1 18L2 18L2 17ZM6 18L6 19L7 19L7 18ZM11 19L11 20L10 20L10 21L11 21L11 20L12 20L12 19ZM14 21L14 22L15 22L15 21ZM19 21L19 22L20 22L20 21ZM21 21L21 24L24 24L24 21ZM22 22L22 23L23 23L23 22ZM17 24L17 25L18 25L18 24ZM10 25L10 27L9 27L9 28L12 28L12 26L11 26L11 25ZM20 25L20 26L21 26L21 25ZM13 26L13 27L14 27L14 26ZM24 26L24 28L25 28L25 26ZM18 28L18 29L19 29L19 28ZM0 0L0 7L7 7L7 0ZM1 1L1 6L6 6L6 1ZM2 2L2 5L5 5L5 2ZM22 0L22 7L29 7L29 0ZM23 1L23 6L28 6L28 1ZM24 2L24 5L27 5L27 2ZM0 22L0 29L7 29L7 22ZM1 23L1 28L6 28L6 23ZM2 24L2 27L5 27L5 24Z" fill="#000000"/></g></g></svg>
