<?xml version="1.0" encoding="UTF-8"?>
<svg xmlns="http://www.w3.org/2000/svg" version="1.1" width="300" height="300" viewBox="0 0 300 300"><rect x="0" y="0" width="300" height="300" fill="#ffffff"/><g transform="scale(10.345)"><g transform="translate(0,0)"><path fill-rule="evenodd" d="M8 0L8 4L10 4L10 3L11 3L11 4L12 4L12 2L11 2L11 0ZM12 0L12 1L16 1L16 2L14 2L14 3L13 3L13 5L11 5L11 6L10 6L10 7L9 7L9 5L8 5L8 7L9 7L9 8L10 8L10 7L11 7L11 6L12 6L12 8L11 8L11 9L8 9L8 10L6 10L6 9L7 9L7 8L4 8L4 9L2 9L2 8L0 8L0 10L1 10L1 12L0 12L0 13L1 13L1 14L2 14L2 13L3 13L3 14L4 14L4 15L3 15L3 16L4 16L4 17L1 17L1 16L2 16L2 15L1 15L1 16L0 16L0 18L3 18L3 19L4 19L4 17L7 17L7 16L6 16L6 15L9 15L9 17L10 17L10 16L11 16L11 17L12 17L12 18L10 18L10 20L9 20L9 19L8 19L8 18L6 18L6 19L5 19L5 20L4 20L4 21L5 21L5 20L6 20L6 21L7 21L7 20L9 20L9 21L8 21L8 22L9 22L9 23L8 23L8 25L10 25L10 26L9 26L9 27L8 27L8 29L11 29L11 28L12 28L12 29L14 29L14 27L16 27L16 28L17 28L17 29L18 29L18 28L19 28L19 29L21 29L21 26L22 26L22 25L26 25L26 23L27 23L27 24L28 24L28 26L27 26L27 29L28 29L28 28L29 28L29 24L28 24L28 23L29 23L29 17L28 17L28 16L29 16L29 13L28 13L28 12L29 12L29 8L25 8L25 9L24 9L24 8L23 8L23 9L22 9L22 10L21 10L21 13L22 13L22 14L26 14L26 15L27 15L27 18L25 18L25 17L26 17L26 16L25 16L25 17L22 17L22 16L19 16L19 14L17 14L17 13L18 13L18 10L17 10L17 9L18 9L18 8L19 8L19 9L21 9L21 8L20 8L20 7L21 7L21 5L19 5L19 4L17 4L17 3L18 3L18 2L17 2L17 0ZM19 1L19 2L20 2L20 1ZM9 2L9 3L10 3L10 2ZM14 5L14 6L13 6L13 8L12 8L12 9L11 9L11 10L8 10L8 11L6 11L6 10L5 10L5 9L4 9L4 10L3 10L3 13L5 13L5 14L7 14L7 13L6 13L6 12L8 12L8 14L9 14L9 15L11 15L11 16L12 16L12 17L13 17L13 19L12 19L12 20L11 20L11 22L10 22L10 21L9 21L9 22L10 22L10 25L11 25L11 26L12 26L12 25L13 25L13 26L14 26L14 25L13 25L13 24L16 24L16 27L17 27L17 22L16 22L16 23L13 23L13 21L14 21L14 22L15 22L15 21L16 21L16 20L15 20L15 21L14 21L14 19L15 19L15 17L17 17L17 19L18 19L18 21L19 21L19 19L20 19L20 20L23 20L23 19L24 19L24 20L26 20L26 21L25 21L25 22L27 22L27 23L28 23L28 20L27 20L27 19L28 19L28 18L27 18L27 19L24 19L24 18L23 18L23 19L21 19L21 17L19 17L19 16L18 16L18 17L17 17L17 16L15 16L15 17L14 17L14 15L15 15L15 13L17 13L17 12L16 12L16 11L17 11L17 10L16 10L16 11L15 11L15 13L14 13L14 11L12 11L12 12L11 12L11 13L10 13L10 11L11 11L11 10L12 10L12 9L13 9L13 10L14 10L14 6L15 6L15 8L16 8L16 9L17 9L17 8L16 8L16 5ZM18 5L18 6L17 6L17 7L18 7L18 6L19 6L19 7L20 7L20 6L19 6L19 5ZM1 9L1 10L2 10L2 9ZM4 10L4 12L6 12L6 11L5 11L5 10ZM22 10L22 11L23 11L23 12L22 12L22 13L26 13L26 14L27 14L27 15L28 15L28 14L27 14L27 11L28 11L28 10L24 10L24 11L23 11L23 10ZM19 11L19 13L20 13L20 11ZM24 11L24 12L25 12L25 11ZM1 12L1 13L2 13L2 12ZM12 12L12 13L13 13L13 14L14 14L14 13L13 13L13 12ZM9 13L9 14L10 14L10 13ZM16 14L16 15L17 15L17 14ZM20 14L20 15L21 15L21 14ZM12 15L12 16L13 16L13 15ZM23 15L23 16L24 16L24 15ZM18 17L18 18L19 18L19 17ZM6 19L6 20L7 20L7 19ZM0 20L0 21L3 21L3 20ZM12 20L12 21L13 21L13 20ZM21 21L21 24L24 24L24 21ZM22 22L22 23L23 23L23 22ZM12 23L12 24L11 24L11 25L12 25L12 24L13 24L13 23ZM18 23L18 25L19 25L19 26L18 26L18 27L19 27L19 28L20 28L20 27L19 27L19 26L21 26L21 25L19 25L19 23ZM10 27L10 28L11 28L11 27ZM12 27L12 28L13 28L13 27ZM22 27L22 28L23 28L23 29L24 29L24 28L25 28L25 29L26 29L26 27L24 27L24 28L23 28L23 27ZM0 0L0 7L7 7L7 0ZM1 1L1 6L6 6L6 1ZM2 2L2 5L5 5L5 2ZM22 0L22 7L29 7L29 0ZM23 1L23 6L28 6L28 1ZM24 2L24 5L27 5L27 2ZM0 22L0 29L7 29L7 22ZM1 23L1 28L6 28L6 23ZM2 24L2 27L5 27L5 24Z" fill="#000000"/></g></g></svg>
