<?xml version="1.0" encoding="UTF-8"?>
<svg xmlns="http://www.w3.org/2000/svg" version="1.1" width="300" height="300" viewBox="0 0 300 300"><rect x="0" y="0" width="300" height="300" fill="#ffffff"/><g transform="scale(10.345)"><g transform="translate(0,0)"><path fill-rule="evenodd" d="M10 0L10 2L11 2L11 0ZM12 0L12 1L13 1L13 2L12 2L12 4L16 4L16 5L14 5L14 8L13 8L13 9L12 9L12 7L13 7L13 5L11 5L11 6L10 6L10 4L11 4L11 3L8 3L8 4L9 4L9 5L8 5L8 7L9 7L9 8L6 8L6 9L5 9L5 8L0 8L0 9L5 9L5 10L1 10L1 12L0 12L0 14L1 14L1 17L0 17L0 21L1 21L1 18L2 18L2 20L3 20L3 21L4 21L4 20L5 20L5 21L8 21L8 23L10 23L10 24L8 24L8 29L11 29L11 27L10 27L10 26L11 26L11 25L12 25L12 26L13 26L13 27L12 27L12 29L13 29L13 28L14 28L14 29L16 29L16 28L14 28L14 27L17 27L17 26L18 26L18 27L20 27L20 28L21 28L21 29L22 29L22 28L21 28L21 25L25 25L25 26L22 26L22 27L23 27L23 29L24 29L24 27L25 27L25 28L26 28L26 29L27 29L27 28L28 28L28 26L29 26L29 23L27 23L27 22L29 22L29 20L28 20L28 19L27 19L27 16L28 16L28 15L27 15L27 12L28 12L28 11L27 11L27 12L25 12L25 13L21 13L21 12L22 12L22 11L23 11L23 12L24 12L24 11L25 11L25 9L26 9L26 8L25 8L25 9L24 9L24 8L23 8L23 9L22 9L22 8L21 8L21 9L19 9L19 10L18 10L18 12L17 12L17 13L16 13L16 12L15 12L15 11L17 11L17 9L18 9L18 8L17 8L17 9L16 9L16 10L14 10L14 8L15 8L15 6L16 6L16 7L17 7L17 6L18 6L18 7L19 7L19 8L20 8L20 7L21 7L21 6L20 6L20 7L19 7L19 6L18 6L18 5L21 5L21 4L19 4L19 2L18 2L18 3L17 3L17 4L16 4L16 2L17 2L17 0L16 0L16 1L13 1L13 0ZM19 0L19 1L20 1L20 2L21 2L21 0ZM8 1L8 2L9 2L9 1ZM13 2L13 3L14 3L14 2ZM9 6L9 7L10 7L10 6ZM11 6L11 7L12 7L12 6ZM10 8L10 9L6 9L6 10L5 10L5 12L4 12L4 11L3 11L3 13L2 13L2 12L1 12L1 14L3 14L3 13L6 13L6 14L7 14L7 15L5 15L5 14L4 14L4 16L7 16L7 15L9 15L9 16L8 16L8 18L7 18L7 17L3 17L3 16L2 16L2 18L3 18L3 19L4 19L4 18L7 18L7 19L6 19L6 20L7 20L7 19L8 19L8 18L9 18L9 17L10 17L10 19L9 19L9 20L8 20L8 21L9 21L9 22L10 22L10 23L11 23L11 22L13 22L13 23L12 23L12 25L14 25L14 26L17 26L17 24L18 24L18 25L20 25L20 24L18 24L18 23L19 23L19 22L20 22L20 20L22 20L22 19L23 19L23 20L24 20L24 19L25 19L25 21L26 21L26 20L27 20L27 19L25 19L25 18L24 18L24 19L23 19L23 18L22 18L22 17L26 17L26 16L27 16L27 15L26 15L26 13L25 13L25 16L24 16L24 15L23 15L23 16L22 16L22 14L21 14L21 15L20 15L20 14L19 14L19 13L20 13L20 12L21 12L21 10L19 10L19 11L20 11L20 12L18 12L18 13L17 13L17 15L16 15L16 17L15 17L15 16L14 16L14 15L15 15L15 14L16 14L16 13L15 13L15 12L14 12L14 11L13 11L13 10L12 10L12 9L11 9L11 8ZM27 8L27 9L28 9L28 10L29 10L29 9L28 9L28 8ZM10 9L10 11L11 11L11 9ZM6 10L6 11L8 11L8 12L9 12L9 13L11 13L11 12L9 12L9 11L8 11L8 10ZM23 10L23 11L24 11L24 10ZM12 11L12 13L14 13L14 14L15 14L15 13L14 13L14 12L13 12L13 11ZM6 12L6 13L7 13L7 12ZM28 13L28 14L29 14L29 13ZM9 14L9 15L11 15L11 16L10 16L10 17L12 17L12 18L13 18L13 19L12 19L12 21L14 21L14 22L15 22L15 23L14 23L14 24L15 24L15 23L16 23L16 24L17 24L17 22L19 22L19 21L18 21L18 20L20 20L20 19L19 19L19 18L21 18L21 19L22 19L22 18L21 18L21 17L18 17L18 16L17 16L17 17L16 17L16 18L15 18L15 17L14 17L14 16L13 16L13 17L12 17L12 15L13 15L13 14ZM13 17L13 18L14 18L14 19L13 19L13 20L14 20L14 21L15 21L15 22L16 22L16 21L15 21L15 20L14 20L14 19L15 19L15 18L14 18L14 17ZM17 17L17 18L16 18L16 20L18 20L18 19L17 19L17 18L18 18L18 17ZM28 17L28 18L29 18L29 17ZM10 19L10 21L11 21L11 19ZM21 21L21 24L24 24L24 21ZM22 22L22 23L23 23L23 22ZM26 23L26 24L25 24L25 25L26 25L26 24L27 24L27 23ZM10 24L10 25L11 25L11 24ZM25 26L25 27L26 27L26 28L27 28L27 26ZM9 27L9 28L10 28L10 27ZM17 28L17 29L18 29L18 28ZM0 0L0 7L7 7L7 0ZM1 1L1 6L6 6L6 1ZM2 2L2 5L5 5L5 2ZM22 0L22 7L29 7L29 0ZM23 1L23 6L28 6L28 1ZM24 2L24 5L27 5L27 2ZM0 22L0 29L7 29L7 22ZM1 23L1 28L6 28L6 23ZM2 24L2 27L5 27L5 24Z" fill="#000000"/></g></g></svg>
