<?xml version="1.0" encoding="UTF-8"?>
<svg xmlns="http://www.w3.org/2000/svg" version="1.1" width="300" height="300" viewBox="0 0 300 300"><rect x="0" y="0" width="300" height="300" fill="#ffffff"/><g transform="scale(10.345)"><g transform="translate(0,0)"><path fill-rule="evenodd" d="M9 0L9 1L10 1L10 2L8 2L8 3L9 3L9 4L10 4L10 5L9 5L9 6L8 6L8 8L4 8L4 9L5 9L5 10L3 10L3 11L2 11L2 12L1 12L1 13L0 13L0 14L3 14L3 12L4 12L4 14L5 14L5 13L7 13L7 12L8 12L8 13L9 13L9 12L8 12L8 10L9 10L9 11L10 11L10 10L12 10L12 8L13 8L13 9L16 9L16 10L18 10L18 11L17 11L17 12L16 12L16 14L19 14L19 13L18 13L18 11L19 11L19 9L18 9L18 8L19 8L19 6L20 6L20 7L21 7L21 6L20 6L20 3L21 3L21 1L20 1L20 0L19 0L19 1L16 1L16 0L14 0L14 2L16 2L16 3L14 3L14 5L13 5L13 6L12 6L12 8L11 8L11 6L10 6L10 5L11 5L11 4L12 4L12 3L13 3L13 0L12 0L12 1L10 1L10 0ZM11 2L11 3L12 3L12 2ZM17 2L17 3L16 3L16 5L17 5L17 7L16 7L16 6L15 6L15 8L17 8L17 7L18 7L18 5L17 5L17 4L19 4L19 3L20 3L20 2L19 2L19 3L18 3L18 2ZM9 6L9 7L10 7L10 6ZM13 6L13 7L14 7L14 6ZM0 8L0 10L2 10L2 9L3 9L3 8ZM9 8L9 10L10 10L10 8ZM20 8L20 11L21 11L21 13L20 13L20 14L21 14L21 15L22 15L22 16L20 16L20 15L17 15L17 16L16 16L16 15L15 15L15 11L14 11L14 10L13 10L13 12L12 12L12 11L11 11L11 12L12 12L12 13L11 13L11 14L10 14L10 15L9 15L9 14L6 14L6 15L9 15L9 16L8 16L8 17L7 17L7 16L6 16L6 17L5 17L5 15L4 15L4 16L3 16L3 15L1 15L1 16L0 16L0 17L1 17L1 18L0 18L0 19L1 19L1 20L0 20L0 21L1 21L1 20L2 20L2 21L3 21L3 20L5 20L5 19L7 19L7 20L6 20L6 21L7 21L7 20L8 20L8 25L9 25L9 26L8 26L8 29L10 29L10 28L12 28L12 29L13 29L13 28L12 28L12 27L11 27L11 26L12 26L12 24L14 24L14 25L18 25L18 23L16 23L16 24L15 24L15 23L14 23L14 22L15 22L15 20L16 20L16 19L17 19L17 21L16 21L16 22L17 22L17 21L18 21L18 19L19 19L19 18L18 18L18 16L20 16L20 19L21 19L21 17L22 17L22 20L20 20L20 21L19 21L19 23L20 23L20 26L18 26L18 27L17 27L17 28L16 28L16 29L18 29L18 28L20 28L20 29L21 29L21 27L22 27L22 26L21 26L21 25L23 25L23 27L24 27L24 28L22 28L22 29L24 29L24 28L25 28L25 23L26 23L26 22L27 22L27 24L29 24L29 21L26 21L26 22L25 22L25 20L26 20L26 18L27 18L27 20L28 20L28 19L29 19L29 16L28 16L28 15L29 15L29 12L28 12L28 11L29 11L29 9L28 9L28 10L26 10L26 9L27 9L27 8L26 8L26 9L25 9L25 10L24 10L24 12L25 12L25 14L23 14L23 12L22 12L22 11L21 11L21 10L23 10L23 8ZM6 9L6 10L8 10L8 9ZM25 10L25 11L26 11L26 13L27 13L27 14L25 14L25 15L24 15L24 16L23 16L23 18L24 18L24 20L25 20L25 18L26 18L26 17L27 17L27 18L28 18L28 17L27 17L27 14L28 14L28 13L27 13L27 11L26 11L26 10ZM6 11L6 12L7 12L7 11ZM13 14L13 15L14 15L14 14ZM22 14L22 15L23 15L23 14ZM11 15L11 16L9 16L9 17L11 17L11 16L12 16L12 18L11 18L11 19L10 19L10 18L9 18L9 19L8 19L8 18L7 18L7 17L6 17L6 18L7 18L7 19L8 19L8 20L10 20L10 23L9 23L9 24L12 24L12 23L11 23L11 21L12 21L12 20L13 20L13 19L14 19L14 20L15 20L15 19L16 19L16 16L15 16L15 19L14 19L14 18L13 18L13 16L12 16L12 15ZM25 15L25 16L26 16L26 15ZM1 16L1 17L3 17L3 18L1 18L1 19L4 19L4 18L5 18L5 17L3 17L3 16ZM11 19L11 20L12 20L12 19ZM21 21L21 24L24 24L24 21ZM22 22L22 23L23 23L23 22ZM10 25L10 26L11 26L11 25ZM26 25L26 27L27 27L27 29L29 29L29 28L28 28L28 27L29 27L29 25ZM13 26L13 27L14 27L14 26ZM20 26L20 27L21 27L21 26ZM27 26L27 27L28 27L28 26ZM0 0L0 7L7 7L7 0ZM1 1L1 6L6 6L6 1ZM2 2L2 5L5 5L5 2ZM22 0L22 7L29 7L29 0ZM23 1L23 6L28 6L28 1ZM24 2L24 5L27 5L27 2ZM0 22L0 29L7 29L7 22ZM1 23L1 28L6 28L6 23ZM2 24L2 27L5 27L5 24Z" fill="#000000"/></g></g></svg>
