<?xml version="1.0" encoding="UTF-8" standalone="no"?>
<!DOCTYPE svg PUBLIC "-//W3C//DTD SVG 1.1//EN" "http://www.w3.org/Graphics/SVG/1.1/DTD/svg11.dtd">
<svg width="100%" height="100%" viewBox="0 0 706 706" version="1.1" xmlns="http://www.w3.org/2000/svg" xmlns:xlink="http://www.w3.org/1999/xlink" xml:space="preserve" xmlns:serif="http://www.serif.com/" style="fill-rule:evenodd;clip-rule:evenodd;stroke-linejoin:round;stroke-miterlimit:2;">
    <g transform="matrix(1,0,0,1,-1215.96,-1190.92)">
        <g transform="matrix(4.16667,0,0,4.16667,-148,-90)">
            <g id="RB-circulo-azul" serif:id="RB circulo azul" transform="matrix(1,0,0,1,114.361,-28.8747)">
                <g transform="matrix(0,-1,-1,0,297.638,336.296)">
                    <path d="M-84.649,-84.649C-131.399,-84.649 -169.298,-46.751 -169.298,0C-169.298,46.751 -131.399,84.649 -84.649,84.649C-37.899,84.649 0,46.751 0,0C0,-46.751 -37.899,-84.649 -84.649,-84.649" style="fill:rgb(25,71,158);fill-rule:nonzero;"/>
                </g>
                <g transform="matrix(1,0,0,1,300.427,420.368)">
                    <path d="M0,1.873C0,13.824 7.082,21.546 18.04,21.546C24.009,21.546 35.295,17.384 35.295,1.631C35.295,-13.021 24.443,-16.892 18.706,-16.892C12.752,-16.892 4.475,-14.828 1.993,-12.725L0,-11.035L0,1.873ZM-51.253,44.574L-51.253,-18.163L-36.626,-18.163L-36.626,-8.827C-29.439,-17.249 -19.075,-20.82 -15.237,-21.522L-13.842,-21.777L-13.842,-42.701L0,-42.701L0,-26.578L0.563,-26.743C1.037,-26.882 1.515,-27.031 2.01,-27.185C5.187,-28.172 9.142,-29.402 16.505,-29.524C16.747,-29.529 16.991,-29.531 17.23,-29.531C40.597,-29.531 49.077,-11.148 49.077,1.209C49.077,5.393 48.754,8.385 47.998,11.217C44.232,25.312 32.284,34.421 17.558,34.421C11.537,34.421 0.171,32.649 -8.296,20.78C-13.444,13.564 -13.842,6.438 -13.842,-2.841L-13.842,-8.228L-14.606,-8.048C-22.514,-6.194 -35.78,-0.805 -35.78,14.445L-35.78,44.574L-51.253,44.574" style="fill:white;fill-rule:nonzero;"/>
                </g>
            </g>
        </g>
    </g>
</svg>
